<svg xmlns="http://www.w3.org/2000/svg" xmlns:xlink="http://www.w3.org/1999/xlink" xmlns:inkscape="http://www.inkscape.org/namespaces/inkscape" version="1.1" width="1920" height="1080" viewBox="0 0 1920 1080">
<defs>
<clipPath id="clip_1">
<path transform="matrix(1,0,0,-1,0,1080)" d="M0 1080H1920V0H0Z"/>
</clipPath>
</defs>
<g inkscape:groupmode="layer" inkscape:label="Livello 1">
<path transform="matrix(1,0,0,-1,603.2496,365.2552)" d="M0 0H-57.056V-371.138H-103.034V0H-160.088V44.316H0Z"/>
<g clip-path="url(#clip_1)">
<path transform="matrix(1,0,0,-1,1210.9445,417.32484)" d="M0 0C0 41.546-9.971 52.07-44.313 52.07H-73.119V-168.397C-33.79-140.146 0-69.242 0 0M-141.253-176.153H-119.097V96.385H-44.313C18.835 96.385 47.085 66.472 47.085 0 47.085-67.027 21.049-131.282-17.172-174.491L49.302-319.069H-.552L-51.515-204.956C-58.164-209.388-65.365-213.267-73.119-216.589V-319.069H-119.097V-220.469H-141.253Z"/>
<path transform="matrix(1,0,0,-1,1389.3168,692.0777)" d="M0 0C27.143 0 41.546 16.063 41.546 50.407 41.546 71.457 33.237 95.278 25.481 110.788 6.646 86.414-15.51 67.58-39.329 57.609V0ZM33.79 274.198C33.79 316.299 23.819 326.822-10.524 326.822H-39.329V106.356C.555 135.159 33.79 206.064 33.79 274.198M-85.307 54.284H-107.464V98.6H-85.307V371.138H-10.524C52.624 371.138 79.768 341.225 79.768 274.753 79.768 230.992 68.689 187.784 50.962 151.779 71.459 129.62 87.522 86.414 87.522 50.407 87.522-7.756 54.287-44.316 0-44.316H-85.307Z"/>
<path transform="matrix(1,0,0,-1,829.3397,693.6101)" d="M0 0C-.917 0-1.843 .009-2.76 .028L-.739-1.525 1.263 .009C.842 0 .421 0 0 0" fill="#b98c3b"/>
<path transform="matrix(1,0,0,-1,774.0246,467.4375)" d="M0 0V-1.385C.683-1.357 1.366-1.319 2.049-1.282 1.375-.833 .692-.412 0 0M110.031 .711V-.168C110.574 .131 111.126 .421 111.678 .711ZM106.663-2.077 110.031-1.946V-.168C108.89-.786 107.767-1.422 106.663-2.077" fill="#b98c3b"/>
<path transform="matrix(1,0,0,-1,830.6028,693.6007)" d="M0 0-2.002-1.534-4.023 .019C-92.6 1.497-164.888 74.187-164.888 165.225-164.888 192.62-158.339 218.36-146.774 240.984-146.353 233.237-144.014 224.956-137.708 217.967-128.323 207.563-113.999 204.41-105.437 202.529-96.745 200.611-86.799 199.956-75.282 199.189-74.524 199.142-73.757 199.095-72.989 199.048L-73.177 52.967-4.023 .019C-3.106 0-2.18-.009-1.263-.009-.842-.009-.421-.009 0 0L69.78 53.285 69.902 198.824C74.122 198.974 78.36 199.217 82.561 199.554 96.006 200.611 104.118 201.256 113.568 204.784 119.921 207.151 128.632 210.407 135.537 218.734 142.639 227.314 143.902 236.455 144.201 241.077 155.803 218.425 162.371 192.658 162.371 165.225 162.371 73.672 89.27 .674 0 0M-90.972 224.909C-86.388 224.535-82.496 224.479-77.097 224.414-75.693 224.395-74.29 224.386-72.886 224.386V214.103C-73.298 214.122-73.7 214.15-74.112 214.178-84.919 214.889-94.257 215.506-101.648 217.144-108.656 218.687-119.248 221.017-125.17 227.576-127.079 229.681-128.482 232.198-129.371 235.099-118.639 227.127-104.025 225.957-90.972 224.909M-39.812 233.62-2.18 264.974 36.228 233.602C29.052 228.951 22.512 223.702 16.682 217.92 9.731 211.025 4.959 204.531 2.667 201.416 1.076 199.245-.468 197.027-1.946 194.772-6.634 201.958-12.023 208.732-18.058 215.029-24.635 221.887-31.915 228.109-39.812 233.62M26.217 159.779 53.575 180.195 53.565 165.047ZM20.968 143.424 53.547 149.693 53.472 60.349 42.609 52.05V125.189ZM-3.144 139.495-1.404 139.167-2.068 138.671ZM-56.737 165-56.709 180.616-29.688 159.873ZM-23.185 143.303-47.147 122.504V52.574L-56.868 60.012-56.756 149.674ZM-2.274 100.993-21.931 80.877V33.262L-30.839 40.083V116.01L-5.838 137.708H3.583L26.301 118.564V39.596L19.424 34.347V80.821ZM3.116 21.885-1.984 17.992-5.623 20.781V75.113L-1.703 79.127 3.116 74.645ZM53.594 199.544 53.584 196.148H53.453V199.441L-1.918 158.123-56.578 200.068V196.868H-56.69V200.152L-56.578 200.068V226.163C-55.886 225.752-55.203 225.331-54.529 224.881-45.613 219.221-37.472 212.568-30.287 205.074-21.847 196.279-14.821 186.417-9.403 175.779L-2.171 161.567 5.305 175.676C8.486 181.673 12.135 187.503 16.168 192.985 18.236 195.792 22.53 201.64 28.631 207.694 34.862 213.878 42.057 219.38 50.085 224.086 51.189 224.741 52.312 225.377 53.453 225.995V226.874H55.1C54.548 226.584 53.996 226.294 53.453 225.995V199.441ZM-1.263 330.459C48.139 330.459 92.685 308.303 122.784 273.067L122.485 263.729C122.401 261.063 121.764 257.021 119.21 252.923 117.713 250.518 115.692 248.347 113.381 246.635 108.394 242.939 102.93 241.976 99.318 241.339 97.84 241.087 96.343 240.9 94.846 240.797L53.884 239.272-2.283 285.137-56.7 239.814C-63.352 239.468-70.117 239.337-76.854 239.431-81.906 239.505-85.555 239.552-89.55 239.87-102.294 240.9-114.326 241.863-120.96 248.347-124.44 251.744-126.48 257.161-126.714 263.58L-126.976 271.074C-96.876 307.47-51.582 330.459-1.263 330.459M127.425 238.149C126.798 235.099 125.479 231.356 122.569 227.857 118.377 222.786 113.063 220.802 107.44 218.706 100.544 216.133 94.762 215.59 81.167 214.524 77.378 214.224 73.56 214 69.761 213.86V224.825L95.641 225.789 95.894 225.798C98.065 225.948 100.235 226.21 102.369 226.584 106.944 227.389 115.439 228.877 123.608 234.93 124.955 235.931 126.227 237.007 127.425 238.149M-1.263 373.237C-116.768 373.237-210.342 280.197-210.342 165.225-210.342 50.253-116.768-42.796-1.263-42.796 114.242-42.796 207.825 50.253 207.825 165.225 207.825 280.197 114.242 373.237-1.263 373.237" fill="#b98c3b"/>
<path transform="matrix(1,0,0,-1,829.3397,693.6101)" d="M0 0C-.917 0-1.843 .009-2.76 .028L-.739-1.525 1.263 .009C.842 0 .421 0 0 0" fill="#b98c3b"/>
<path transform="matrix(1,0,0,-1,885.7028,466.72639)" d="M0 0C-.552-.29-1.104-.58-1.647-.88V0Z" fill="#b98c3b"/>
<path transform="matrix(1,0,0,-1,829.1993,554.4334)" d="M0 0-.664-.496-1.74 .327Z" fill="#b98c3b"/>
<path transform="matrix(1,0,0,-1,774.0246,493.53248)" d="M0 0V-3.2H-.112V.084Z" fill="#b98c3b"/>
<path transform="matrix(1,0,0,-1,829.1993,554.4334)" d="M0 0-.664-.496-1.74 .327Z" fill="#b98c3b"/>
<path transform="matrix(1,0,0,-1,884.1964,494.05653)" d="M0 0-.009-3.396H-.14V-.103Z" fill="#b98c3b"/>
<path transform="matrix(1,0,0,-1,774.0246,493.53248)" d="M0 0V-3.2H-.112V.084Z" fill="#b98c3b"/>
<path transform="matrix(1,0,0,-1,884.1964,494.05653)" d="M0 0-.009-3.396H-.14V-.103Z" fill="#b98c3b"/>
<path transform="matrix(1,0,0,-1,885.7028,466.72639)" d="M0 0C-.552-.29-1.104-.58-1.647-.88V0Z" fill="#b98c3b"/>
<path transform="matrix(1,0,0,-1,696.4158,727.6316)" d="M0 0-4.79 3.012-2.637 6.436 10.589-1.88 8.436-5.305 3.646-2.293-7.758-20.434-11.405-18.142Z"/>
<path transform="matrix(1,0,0,-1,708.6938,730.5792)" d="M0 0 3.816-1.995-.976-11.163 7.658-15.677 12.451-6.509 16.294-8.519 4.507-31.071 .663-29.061 5.798-19.235-2.836-14.721-7.972-24.547-11.788-22.551Z"/>
<path transform="matrix(1,0,0,-1,728.2994,740.5844)" d="M0 0 13.058-5.525 11.495-9.222 2.404-5.375-.133-11.377 8.206-14.904 6.751-18.346-1.587-14.818-4.352-21.358 4.739-25.205 3.165-28.93-9.893-23.406Z"/>
<path transform="matrix(1,0,0,-1,746.0016,766.0952)" d="M0 0 4.068-1.206C3.365-3.799 4.344-6.247 7.267-7.113 9.859-7.883 12.034-6.853 12.675-4.692 13.43-2.147 11.5-.802 8.776 1.068 5.206 3.511 3.076 6.172 4.235 10.078 5.324 13.749 9.328 15.749 13.607 14.48 18.279 13.094 20.277 9.218 18.964 4.681L15.003 5.919C15.631 8.148 14.891 10.074 12.51 10.78 10.461 11.388 8.796 10.529 8.287 8.813 7.663 6.711 9.218 5.542 11.281 4.093 14.945 1.525 18.374-.844 16.846-5.994 15.52-10.463 11.043-12.29 6.161-10.843 .977-9.305-1.41-4.863 0 0"/>
<path transform="matrix(1,0,0,-1,769.9391,755.45498)" d="M0 0 5.443-1 10.709-22.781 23.254-4.273 28.666-5.267 24.072-30.258 19.835-29.48 23.174-11.321 11.733-27.992 7.837-27.276 2.997-7.52-.358-25.77-4.594-24.992Z"/>
<path transform="matrix(1,0,0,-1,812.9187,783.2904)" d="M0 0C5.178-.3 9.334 3.511 9.62 8.444 9.906 13.375 6.215 17.609 1.037 17.908-4.172 18.209-8.327 14.428-8.612 9.497-8.898 4.565-5.209 .301 0 0M-.244-4.223C-8.058-3.772-13.32 2.687-12.911 9.746-12.504 16.773-6.532 22.582 1.281 22.131 9.064 21.681 14.326 15.223 13.919 8.195 13.51 1.137 7.538-4.673-.244-4.223"/>
<path transform="matrix(1,0,0,-1,829.9759,762.2147)" d="M0 0 4.303 .169 4.715-10.29 11.307 .442 16.553 .648 8.645-11.033 19.656-24.661 14.128-24.878 4.791-12.234 5.303-25.253 1-25.421Z"/>
<path transform="matrix(1,0,0,-1,849.7354,761.2416)" d="M0 0 14.088 1.623 14.546-2.366 4.738-3.496 5.482-9.97 14.478-8.933 14.905-12.646 5.909-13.682 6.719-20.739 16.528-19.608 16.99-23.628 2.902-25.25Z"/>
<path transform="matrix(1,0,0,-1,875.8982,778.9758)" d="M0 0C6.198 1.223 8.412 5.436 7.481 10.162 6.55 14.888 2.916 17.885-3.283 16.662L-4.331 16.456-1.049-.207ZM-9.373 19.774-4.563 20.722C5.059 22.62 10.4 17.787 11.737 11.001 13.073 4.215 9.982-2.374 .361-4.272L-4.45-5.22Z"/>
<path transform="matrix(1,0,0,-1,908.8265,771.0877)" d="M0 0C3.944 1.291 5.479 2.768 4.585 5.496 3.74 8.078 1.591 8.577-1.995 7.403L-4.564 6.562-2.182-.714ZM-3.051 10.63C-.272 11.54 .963 12.919 .214 15.207-.593 17.672-2.336 18.043-5.175 17.115L-7.745 16.273-5.621 9.789ZM-12.763 18.464-6.398 20.547C-.9 22.347 2.512 21.222 3.944 16.851 4.712 14.503 4.154 12.469 2.591 11.081 5.541 11.266 7.845 9.584 8.748 6.826 10.295 2.102 8.023-1.467 1.3-3.668L-4.855-5.681Z"/>
<path transform="matrix(1,0,0,-1,914.5231,746.3764)" d="M0 0 13.096 5.427 14.633 1.72 5.515-2.06 8.009-8.078 16.372-4.612 17.803-8.064 9.44-11.53 12.158-18.091 21.277-14.311 22.825-18.049 9.729-23.476Z"/>
<path transform="matrix(1,0,0,-1,930.1841,739.7438)" d="M0 0 12.678 6.348 14.475 2.759 5.648-1.661 8.564-7.487 16.66-3.433 18.332-6.773 10.236-10.827 13.415-17.179 22.242-12.758 24.052-16.376 11.374-22.724Z"/>
<path transform="matrix(1,0,0,-1,958.6394,741.9312)" d="M0 0C3.504 2.105 4.188 5.181 2.472 8.04 .692 11.004-2.318 11.681-5.768 9.609L-7.547 8.54-1.779-1.068ZM-13.369 9.869-8.464 12.816C-1.482 17.009 3.478 14.55 6.084 10.209 7.736 7.456 8.231 4.188 6.727 1.196L14.387-3.134 9.966-5.789 4.185-2.024C3.548-2.55 2.841-3.083 2.005-3.585L.334-4.589 3.433-9.75-.26-11.968Z"/>
</g>
</g>
</svg>
